{"title":"Pixels(2015)MPEG-4[DaScubaDude]","uid":13749874,"size":1053229705,"categoryP":"video","categoryS":"movies","magnet":"?xt=urn:btih:36d110a6276d81e698f030058883206536b98d0f&amp;dn=Pixels%282015%29MPEG-4%5BDaScubaDude%5D&amp;tr=udp%3A%2F%2Ftracker.leechers-paradise.org%3A6969&amp;tr=udp%3A%2F%2Fzer0day.ch%3A1337&amp;tr=udp%3A%2F%2Fopen.demonii.com%3A1337&amp;tr=udp%3A%2F%2Ftracker.coppersurfer.tk%3A6969&amp;tr=udp%3A%2F%2Fexodus.desync.com%3A6969","seeders":1,"leechers":0,"uploader":"dascuba","files":1,"time":1457143670,"description":"Pixels (2015)\r\nPG-13  |  106 min  |  Action, Comedy, Sci-Fi  |  24 July 2015 (USA)\r\n5.7 Your rating:   -/10   Ratings: 5.7/10 from 75,554 users   Metascore: 27/100 \r\nReviews: 319 user | 249 critic | 37 from Metacritic.com\r\nWhen aliens misinterpret video feeds of classic arcade games as a declaration of war, they attack the Earth in the form of the video games.\r\n\r\nDirector: Chris Columbus\r\nWriters: Tim Herlihy (screenplay), Timothy Dowling (screenplay), 2 more credits »\r\nStars: Adam Sandler, Kevin James, Michelle Monaghan\r\n\r\nGeneral\r\nComplete name                            : PixelsPIXELS_Title1.mp4\r\nFormat                                   : MPEG-4\r\nFormat profile                           : Base Media\r\nCodec ID                                 : isom\r\nFile size                                : 1 004 MiB\r\nDuration                                 : 1h 45mn\r\nOverall bit rate                         : 1 328 Kbps\r\nMovie name                               : PIXELS\r\nGenre                                    : Comedy\r\nWriting application                      : Lavf54.6.100\r\n\r\nVideo\r\nID                                       : 1\r\nFormat                                   : AVC\r\nFormat/Info                              : Advanced Video Codec\r\nFormat profile                           :   \r\nFormat settings, CABAC                   : No\r\nFormat settings, ReFrames                : 6 frames\r\nFormat settings, GOP                     : M=1, N=60\r\nCodec ID                                 : avc1\r\nCodec ID/Info                            : Advanced Video Coding\r\nDuration                                 : 1h 45mn\r\nBit rate                                 : 1 194 Kbps\r\nWidth                                    : 720 pixels\r\nHeight                                   : 404 pixels\r\nDisplay aspect ratio                     : 16:9\r\nFrame rate mode                          : Constant\r\nFrame rate                               : 29.970 fps\r\nColor space                              : YUV\r\nChroma subsampling                       : 4:2:0\r\nBit depth                                : 8 bits\r\nScan type                                : Progressive\r\nBits/(Pixel*Frame)                       : 0.137\r\nStream size                              : 903 MiB (90%)\r\n\r\nAudio\r\nID                                       : 2\r\nFormat                                   : AAC\r\nFormat/Info                              : Advanced Audio Codec\r\nFormat profile                           : LC\r\nCodec ID                                 : 40\r\nDuration                                 : 1h 45mn\r\nBit rate mode                            : Constant\r\nBit rate                                 : 128 Kbps\r\nChannel(s)                               : 2 channels\r\nChannel positions                        : Front: L R\r\nSampling rate                            : 44.1 KHz\r\nCompression mode                         : Lossy\r\nStream size                              : 96.8 MiB (10%)","torrent":{"xt":"urn:btih:36d110a6276d81e698f030058883206536b98d0f","amp;dn":"Pixels%282015%29MPEG-4%5BDaScubaDude%5D","amp;tr":["udp%3A%2F%2Ftracker.leechers-paradise.org%3A6969","udp%3A%2F%2Fzer0day.ch%3A1337","udp%3A%2F%2Fopen.demonii.com%3A1337","udp%3A%2F%2Ftracker.coppersurfer.tk%3A6969","udp%3A%2F%2Fexodus.desync.com%3A6969"],"infoHash":"36d110a6276d81e698f030058883206536b98d0f","infoHashBuffer":{"type":"Buffer","data":[54,209,16,166,39,109,129,230,152,240,48,5,136,131,32,101,54,185,141,15]},"announce":[],"urlList":[]}}